<svg xmlns="http://www.w3.org/2000/svg" xmlns:xlink="http://www.w3.org/1999/xlink" width="466" zoomAndPan="magnify" viewBox="0 0 349.5 98.999996" height="132" preserveAspectRatio="xMidYMid meet" version="1.0"><defs><g/><clipPath id="123b541914"><path d="M 0 0.0703125 L 349 0.0703125 L 349 98.929688 L 0 98.929688 Z M 0 0.0703125 " clip-rule="nonzero"/></clipPath><clipPath id="f1ab86bf21"><path d="M 3 0.0703125 L 347 0.0703125 L 347 98.929688 L 3 98.929688 Z M 3 0.0703125 " clip-rule="nonzero"/></clipPath><clipPath id="2c3f263d9b"><path d="M 0.835938 0.0703125 L 343 0.0703125 L 343 73 L 0.835938 73 Z M 0.835938 0.0703125 " clip-rule="nonzero"/></clipPath><clipPath id="922cf1dd40"><rect x="0" width="343" y="0" height="73"/></clipPath><clipPath id="9869396a30"><rect x="0" width="344" y="0" height="99"/></clipPath></defs><g clip-path="url(#123b541914)"><path fill="#ffffff" d="M 0 0.0703125 L 349 0.0703125 L 349 98.929688 L 0 98.929688 Z M 0 0.0703125 " fill-opacity="1" fill-rule="nonzero"/><path fill="#ffffff" d="M 0 0.0703125 L 349 0.0703125 L 349 98.929688 L 0 98.929688 Z M 0 0.0703125 " fill-opacity="1" fill-rule="nonzero"/></g><g clip-path="url(#f1ab86bf21)"><g transform="matrix(1, 0, 0, 1, 3, -0.000000000000000153)"><g clip-path="url(#9869396a30)"><g clip-path="url(#2c3f263d9b)"><g transform="matrix(1, 0, 0, 1, 0, -0.000000000000000153)"><g clip-path="url(#922cf1dd40)"><g fill="#282642" fill-opacity="1"><g transform="translate(0.987739, 52.64847)"><g><path d="M 2.6875 -15.359375 C 2.6875 -18.503906 3.320312 -21.257812 4.59375 -23.625 C 5.863281 -26 7.609375 -27.832031 9.828125 -29.125 C 12.054688 -30.414062 14.570312 -31.0625 17.375 -31.0625 C 20.070312 -31.0625 22.503906 -30.40625 24.671875 -29.09375 C 26.835938 -27.789062 28.425781 -26.09375 29.4375 -24 L 29.4375 -41.484375 L 33.359375 -41.484375 L 33.359375 0 L 29.4375 0 L 29.4375 -6.84375 C 28.5 -4.707031 26.960938 -2.957031 24.828125 -1.59375 C 22.703125 -0.226562 20.203125 0.453125 17.328125 0.453125 C 14.523438 0.453125 12.007812 -0.195312 9.78125 -1.5 C 7.5625 -2.8125 5.820312 -4.664062 4.5625 -7.0625 C 3.3125 -9.457031 2.6875 -12.222656 2.6875 -15.359375 Z M 29.4375 -15.3125 C 29.4375 -17.769531 28.929688 -19.929688 27.921875 -21.796875 C 26.910156 -23.671875 25.535156 -25.113281 23.796875 -26.125 C 22.054688 -27.132812 20.140625 -27.640625 18.046875 -27.640625 C 15.878906 -27.640625 13.9375 -27.148438 12.21875 -26.171875 C 10.5 -25.203125 9.144531 -23.789062 8.15625 -21.9375 C 7.164062 -20.09375 6.671875 -17.898438 6.671875 -15.359375 C 6.671875 -12.859375 7.164062 -10.660156 8.15625 -8.765625 C 9.144531 -6.878906 10.5 -5.441406 12.21875 -4.453125 C 13.9375 -3.460938 15.878906 -2.96875 18.046875 -2.96875 C 20.140625 -2.96875 22.054688 -3.472656 23.796875 -4.484375 C 25.535156 -5.492188 26.910156 -6.929688 27.921875 -8.796875 C 28.929688 -10.671875 29.4375 -12.84375 29.4375 -15.3125 Z M 29.4375 -15.3125 "/></g></g></g><g fill="#282642" fill-opacity="1"><g transform="translate(38.81141, 52.64847)"><g><path d="M 6.453125 -36.390625 C 5.660156 -36.390625 4.984375 -36.664062 4.421875 -37.21875 C 3.867188 -37.78125 3.59375 -38.472656 3.59375 -39.296875 C 3.59375 -40.117188 3.867188 -40.800781 4.421875 -41.34375 C 4.984375 -41.882812 5.660156 -42.15625 6.453125 -42.15625 C 7.234375 -42.15625 7.90625 -41.882812 8.46875 -41.34375 C 9.03125 -40.800781 9.3125 -40.117188 9.3125 -39.296875 C 9.3125 -38.472656 9.03125 -37.78125 8.46875 -37.21875 C 7.90625 -36.664062 7.234375 -36.390625 6.453125 -36.390625 Z M 8.40625 -30.609375 L 8.40625 0 L 4.484375 0 L 4.484375 -30.609375 Z M 8.40625 -30.609375 "/></g></g></g><g fill="#282642" fill-opacity="1"><g transform="translate(51.643432, 52.64847)"><g><path d="M 32.1875 -16.875 C 32.1875 -15.53125 32.144531 -14.503906 32.0625 -13.796875 L 6.671875 -13.796875 C 6.785156 -11.472656 7.34375 -9.488281 8.34375 -7.84375 C 9.351562 -6.195312 10.679688 -4.953125 12.328125 -4.109375 C 13.972656 -3.273438 15.769531 -2.859375 17.71875 -2.859375 C 20.257812 -2.859375 22.394531 -3.472656 24.125 -4.703125 C 25.863281 -5.941406 27.015625 -7.609375 27.578125 -9.703125 L 31.734375 -9.703125 C 30.984375 -6.710938 29.382812 -4.269531 26.9375 -2.375 C 24.488281 -0.488281 21.414062 0.453125 17.71875 0.453125 C 14.84375 0.453125 12.265625 -0.191406 9.984375 -1.484375 C 7.703125 -2.773438 5.914062 -4.609375 4.625 -6.984375 C 3.332031 -9.359375 2.6875 -12.132812 2.6875 -15.3125 C 2.6875 -18.488281 3.320312 -21.269531 4.59375 -23.65625 C 5.863281 -26.050781 7.640625 -27.882812 9.921875 -29.15625 C 12.203125 -30.425781 14.800781 -31.0625 17.71875 -31.0625 C 20.632812 -31.0625 23.179688 -30.425781 25.359375 -29.15625 C 27.546875 -27.882812 29.226562 -26.171875 30.40625 -24.015625 C 31.59375 -21.867188 32.1875 -19.488281 32.1875 -16.875 Z M 28.203125 -16.984375 C 28.234375 -19.265625 27.769531 -21.207031 26.8125 -22.8125 C 25.863281 -24.425781 24.566406 -25.640625 22.921875 -26.453125 C 21.285156 -27.273438 19.492188 -27.6875 17.546875 -27.6875 C 14.628906 -27.6875 12.140625 -26.753906 10.078125 -24.890625 C 8.023438 -23.023438 6.890625 -20.390625 6.671875 -16.984375 Z M 28.203125 -16.984375 "/></g></g></g><g fill="#282642" fill-opacity="1"><g transform="translate(86.497244, 52.64847)"><g><path d="M 17.328125 -31.0625 C 20.203125 -31.0625 22.703125 -30.382812 24.828125 -29.03125 C 26.960938 -27.6875 28.5 -25.988281 29.4375 -23.9375 L 29.4375 -30.609375 L 33.359375 -30.609375 L 33.359375 0.78125 C 33.359375 3.582031 32.75 6.066406 31.53125 8.234375 C 30.320312 10.410156 28.628906 12.085938 26.453125 13.265625 C 24.285156 14.441406 21.820312 15.03125 19.0625 15.03125 C 15.132812 15.03125 11.867188 14.09375 9.265625 12.21875 C 6.671875 10.351562 5.054688 7.8125 4.421875 4.59375 L 8.296875 4.59375 C 8.972656 6.726562 10.253906 8.429688 12.140625 9.703125 C 14.023438 10.972656 16.332031 11.609375 19.0625 11.609375 C 21.039062 11.609375 22.8125 11.1875 24.375 10.34375 C 25.945312 9.5 27.179688 8.253906 28.078125 6.609375 C 28.984375 4.972656 29.4375 3.03125 29.4375 0.78125 L 29.4375 -6.78125 C 28.457031 -4.6875 26.910156 -2.957031 24.796875 -1.59375 C 22.691406 -0.226562 20.203125 0.453125 17.328125 0.453125 C 14.523438 0.453125 12.007812 -0.195312 9.78125 -1.5 C 7.5625 -2.8125 5.820312 -4.664062 4.5625 -7.0625 C 3.3125 -9.457031 2.6875 -12.222656 2.6875 -15.359375 C 2.6875 -18.503906 3.3125 -21.257812 4.5625 -23.625 C 5.820312 -26 7.5625 -27.832031 9.78125 -29.125 C 12.007812 -30.414062 14.523438 -31.0625 17.328125 -31.0625 Z M 29.4375 -15.3125 C 29.4375 -17.769531 28.929688 -19.929688 27.921875 -21.796875 C 26.910156 -23.671875 25.535156 -25.113281 23.796875 -26.125 C 22.054688 -27.132812 20.140625 -27.640625 18.046875 -27.640625 C 15.878906 -27.640625 13.9375 -27.148438 12.21875 -26.171875 C 10.5 -25.203125 9.144531 -23.789062 8.15625 -21.9375 C 7.164062 -20.09375 6.671875 -17.898438 6.671875 -15.359375 C 6.671875 -12.859375 7.164062 -10.660156 8.15625 -8.765625 C 9.144531 -6.878906 10.5 -5.441406 12.21875 -4.453125 C 13.9375 -3.460938 15.878906 -2.96875 18.046875 -2.96875 C 20.140625 -2.96875 22.054688 -3.472656 23.796875 -4.484375 C 25.535156 -5.492188 26.910156 -6.929688 27.921875 -8.796875 C 28.929688 -10.671875 29.4375 -12.84375 29.4375 -15.3125 Z M 29.4375 -15.3125 "/></g></g></g><g fill="#282642" fill-opacity="1"><g transform="translate(124.320915, 52.64847)"><g><path d="M 17.890625 0.453125 C 15.003906 0.453125 12.410156 -0.191406 10.109375 -1.484375 C 7.816406 -2.773438 6.003906 -4.609375 4.671875 -6.984375 C 3.347656 -9.359375 2.6875 -12.132812 2.6875 -15.3125 C 2.6875 -18.488281 3.359375 -21.257812 4.703125 -23.625 C 6.054688 -26 7.890625 -27.832031 10.203125 -29.125 C 12.515625 -30.414062 15.113281 -31.0625 18 -31.0625 C 20.875 -31.0625 23.476562 -30.414062 25.8125 -29.125 C 28.15625 -27.832031 29.988281 -26 31.3125 -23.625 C 32.632812 -21.257812 33.296875 -18.488281 33.296875 -15.3125 C 33.296875 -12.164062 32.625 -9.394531 31.28125 -7 C 29.9375 -4.613281 28.085938 -2.773438 25.734375 -1.484375 C 23.378906 -0.191406 20.765625 0.453125 17.890625 0.453125 Z M 17.890625 -2.96875 C 19.898438 -2.96875 21.765625 -3.425781 23.484375 -4.34375 C 25.203125 -5.257812 26.59375 -6.640625 27.65625 -8.484375 C 28.726562 -10.335938 29.265625 -12.613281 29.265625 -15.3125 C 29.265625 -18 28.738281 -20.265625 27.6875 -22.109375 C 26.644531 -23.960938 25.265625 -25.347656 23.546875 -26.265625 C 21.828125 -27.179688 19.957031 -27.640625 17.9375 -27.640625 C 15.914062 -27.640625 14.046875 -27.179688 12.328125 -26.265625 C 10.609375 -25.347656 9.234375 -23.960938 8.203125 -22.109375 C 7.179688 -20.265625 6.671875 -18 6.671875 -15.3125 C 6.671875 -12.613281 7.179688 -10.335938 8.203125 -8.484375 C 9.234375 -6.640625 10.597656 -5.257812 12.296875 -4.34375 C 14.003906 -3.425781 15.867188 -2.96875 17.890625 -2.96875 Z M 17.890625 -2.96875 "/></g></g></g><g fill="#e1341e" fill-opacity="1"><g transform="translate(160.311329, 52.64847)"><g><path d="M 7.953125 0.453125 C 6.273438 0.453125 4.90625 -0.0390625 3.84375 -1.03125 C 2.78125 -2.019531 2.25 -3.242188 2.25 -4.703125 C 2.25 -6.203125 2.78125 -7.457031 3.84375 -8.46875 C 4.90625 -9.476562 6.273438 -9.984375 7.953125 -9.984375 C 9.597656 -9.984375 10.953125 -9.476562 12.015625 -8.46875 C 13.085938 -7.457031 13.625 -6.203125 13.625 -4.703125 C 13.625 -3.242188 13.085938 -2.019531 12.015625 -1.03125 C 10.953125 -0.0390625 9.597656 0.453125 7.953125 0.453125 Z M 7.953125 0.453125 "/></g></g></g><g fill="#282642" fill-opacity="1"><g transform="translate(176.117651, 52.64847)"><g><path d="M 13.0625 -26.859375 C 14 -28.316406 15.285156 -29.492188 16.921875 -30.390625 C 18.566406 -31.285156 20.492188 -31.734375 22.703125 -31.734375 C 25.285156 -31.734375 27.625 -31.078125 29.71875 -29.765625 C 31.8125 -28.460938 33.460938 -26.59375 34.671875 -24.15625 C 35.890625 -21.726562 36.5 -18.910156 36.5 -15.703125 C 36.5 -12.484375 35.890625 -9.648438 34.671875 -7.203125 C 33.460938 -4.753906 31.8125 -2.863281 29.71875 -1.53125 C 27.625 -0.207031 25.285156 0.453125 22.703125 0.453125 C 20.535156 0.453125 18.617188 0.00390625 16.953125 -0.890625 C 15.296875 -1.796875 14 -2.957031 13.0625 -4.375 L 13.0625 14.90625 L 3.46875 14.90625 L 3.46875 -31.28125 L 13.0625 -31.28125 Z M 26.734375 -15.703125 C 26.734375 -18.085938 26.070312 -19.960938 24.75 -21.328125 C 23.425781 -22.691406 21.789062 -23.375 19.84375 -23.375 C 17.9375 -23.375 16.316406 -22.679688 14.984375 -21.296875 C 13.660156 -19.921875 13 -18.035156 13 -15.640625 C 13 -13.242188 13.660156 -11.351562 14.984375 -9.96875 C 16.316406 -8.59375 17.9375 -7.90625 19.84375 -7.90625 C 21.75 -7.90625 23.375 -8.601562 24.71875 -10 C 26.0625 -11.40625 26.734375 -13.304688 26.734375 -15.703125 Z M 26.734375 -15.703125 "/></g></g></g><g fill="#282642" fill-opacity="1"><g transform="translate(214.165475, 52.64847)"><g><path d="M 8.296875 -34.53125 C 6.617188 -34.53125 5.242188 -35.023438 4.171875 -36.015625 C 3.109375 -37.003906 2.578125 -38.226562 2.578125 -39.6875 C 2.578125 -41.1875 3.109375 -42.429688 4.171875 -43.421875 C 5.242188 -44.410156 6.617188 -44.90625 8.296875 -44.90625 C 9.941406 -44.90625 11.296875 -44.410156 12.359375 -43.421875 C 13.421875 -42.429688 13.953125 -41.1875 13.953125 -39.6875 C 13.953125 -38.226562 13.421875 -37.003906 12.359375 -36.015625 C 11.296875 -35.023438 9.941406 -34.53125 8.296875 -34.53125 Z M 13.0625 -31.28125 L 13.0625 0 L 3.46875 0 L 3.46875 -31.28125 Z M 13.0625 -31.28125 "/></g></g></g><g fill="#282642" fill-opacity="1"><g transform="translate(230.695829, 52.64847)"><g><path d="M 22.53125 -31.625 C 26.195312 -31.625 29.125 -30.4375 31.3125 -28.0625 C 33.5 -25.6875 34.59375 -22.425781 34.59375 -18.28125 L 34.59375 0 L 25.0625 0 L 25.0625 -16.984375 C 25.0625 -19.078125 24.519531 -20.703125 23.4375 -21.859375 C 22.351562 -23.023438 20.894531 -23.609375 19.0625 -23.609375 C 17.226562 -23.609375 15.769531 -23.023438 14.6875 -21.859375 C 13.601562 -20.703125 13.0625 -19.078125 13.0625 -16.984375 L 13.0625 0 L 3.46875 0 L 3.46875 -31.28125 L 13.0625 -31.28125 L 13.0625 -27.140625 C 14.03125 -28.515625 15.335938 -29.601562 16.984375 -30.40625 C 18.628906 -31.21875 20.476562 -31.625 22.53125 -31.625 Z M 22.53125 -31.625 "/></g></g></g><g fill="#282642" fill-opacity="1"><g transform="translate(268.463467, 52.64847)"><g><path d="M 22.703125 -31.625 C 26.296875 -31.625 29.175781 -30.4375 31.34375 -28.0625 C 33.507812 -25.6875 34.59375 -22.425781 34.59375 -18.28125 L 34.59375 0 L 25.0625 0 L 25.0625 -16.984375 C 25.0625 -19.078125 24.519531 -20.703125 23.4375 -21.859375 C 22.351562 -23.023438 20.894531 -23.609375 19.0625 -23.609375 C 17.226562 -23.609375 15.769531 -23.023438 14.6875 -21.859375 C 13.601562 -20.703125 13.0625 -19.078125 13.0625 -16.984375 L 13.0625 0 L 3.46875 0 L 3.46875 -41.484375 L 13.0625 -41.484375 L 13.0625 -27.078125 C 14.03125 -28.460938 15.351562 -29.566406 17.03125 -30.390625 C 18.71875 -31.210938 20.609375 -31.625 22.703125 -31.625 Z M 22.703125 -31.625 "/></g></g></g><g fill="#282642" fill-opacity="1"><g transform="translate(306.231104, 52.64847)"><g><path d="M 17.71875 0.453125 C 14.65625 0.453125 11.898438 -0.195312 9.453125 -1.5 C 7.003906 -2.8125 5.078125 -4.679688 3.671875 -7.109375 C 2.265625 -9.546875 1.5625 -12.390625 1.5625 -15.640625 C 1.5625 -18.859375 2.269531 -21.691406 3.6875 -24.140625 C 5.113281 -26.585938 7.0625 -28.460938 9.53125 -29.765625 C 12 -31.078125 14.765625 -31.734375 17.828125 -31.734375 C 20.890625 -31.734375 23.65625 -31.078125 26.125 -29.765625 C 28.59375 -28.460938 30.535156 -26.585938 31.953125 -24.140625 C 33.378906 -21.691406 34.09375 -18.859375 34.09375 -15.640625 C 34.09375 -12.421875 33.367188 -9.585938 31.921875 -7.140625 C 30.484375 -4.691406 28.519531 -2.8125 26.03125 -1.5 C 23.550781 -0.195312 20.78125 0.453125 17.71875 0.453125 Z M 17.71875 -7.84375 C 19.550781 -7.84375 21.109375 -8.515625 22.390625 -9.859375 C 23.679688 -11.210938 24.328125 -13.140625 24.328125 -15.640625 C 24.328125 -18.140625 23.703125 -20.0625 22.453125 -21.40625 C 21.203125 -22.757812 19.660156 -23.4375 17.828125 -23.4375 C 15.960938 -23.4375 14.410156 -22.769531 13.171875 -21.4375 C 11.941406 -20.113281 11.328125 -18.179688 11.328125 -15.640625 C 11.328125 -13.140625 11.929688 -11.210938 13.140625 -9.859375 C 14.359375 -8.515625 15.882812 -7.84375 17.71875 -7.84375 Z M 17.71875 -7.84375 "/></g></g></g></g></g></g><g fill="#34b300" fill-opacity="1"><g transform="translate(118.903326, 91.006445)"><g><path d="M 2.1875 -5.125 L 10.546875 -8.84375 C 10.816406 -8.957031 11.082031 -9.046875 11.34375 -9.109375 C 11.601562 -9.179688 11.835938 -9.238281 12.046875 -9.28125 C 12.273438 -9.300781 12.503906 -9.316406 12.734375 -9.328125 L 12.734375 -9.5625 C 12.503906 -9.582031 12.273438 -9.625 12.046875 -9.6875 C 11.835938 -9.71875 11.601562 -9.765625 11.34375 -9.828125 C 11.082031 -9.898438 10.816406 -9.992188 10.546875 -10.109375 L 2.1875 -13.828125 L 2.1875 -17.203125 L 15.09375 -11.296875 L 15.09375 -7.6875 L 2.1875 -1.78125 Z M 2.1875 -5.125 "/></g></g></g><g fill="#34b300" fill-opacity="1"><g transform="translate(134.744844, 91.006445)"><g><path d="M 1.734375 0.71875 L 15.5625 0.71875 L 15.5625 3.96875 L 1.734375 3.96875 Z M 1.734375 0.71875 "/></g></g></g><g fill="#282642" fill-opacity="1"><g transform="translate(150.597449, 91.006445)"><g><path d="M 8.984375 -21.03125 L 8.984375 -4.609375 C 8.984375 -3.898438 9.175781 -3.347656 9.5625 -2.953125 C 9.945312 -2.554688 10.476562 -2.359375 11.15625 -2.359375 L 15.84375 -2.359375 L 15.84375 0 L 11.15625 0 C 9.675781 0 8.507812 -0.40625 7.65625 -1.21875 C 6.8125 -2.039062 6.390625 -3.171875 6.390625 -4.609375 L 6.390625 -18.671875 L 1.15625 -18.671875 L 1.15625 -21.03125 Z M 8.984375 -21.03125 "/></g></g></g><g fill="#282642" fill-opacity="1"><g transform="translate(166.438968, 91.006445)"><g><path d="M 8.640625 0.28125 C 6.660156 0.28125 5.109375 -0.253906 3.984375 -1.328125 C 2.867188 -2.398438 2.3125 -3.878906 2.3125 -5.765625 L 2.3125 -10.078125 C 2.3125 -11.960938 2.867188 -13.441406 3.984375 -14.515625 C 5.109375 -15.597656 6.660156 -16.140625 8.640625 -16.140625 C 10.617188 -16.140625 12.171875 -15.597656 13.296875 -14.515625 C 14.421875 -13.441406 14.984375 -11.960938 14.984375 -10.078125 L 14.984375 -7.171875 L 4.890625 -7.171875 L 4.890625 -5.90625 C 4.890625 -4.695312 5.222656 -3.742188 5.890625 -3.046875 C 6.554688 -2.359375 7.472656 -2.015625 8.640625 -2.015625 C 9.503906 -2.015625 10.253906 -2.148438 10.890625 -2.421875 C 11.523438 -2.691406 11.992188 -3.082031 12.296875 -3.59375 L 14.890625 -3.59375 C 14.566406 -2.382812 13.84375 -1.4375 12.71875 -0.75 C 11.59375 -0.0625 10.234375 0.28125 8.640625 0.28125 Z M 12.390625 -9.328125 L 12.390625 -10.078125 C 12.390625 -11.273438 12.0625 -12.195312 11.40625 -12.84375 C 10.757812 -13.5 9.835938 -13.828125 8.640625 -13.828125 C 7.453125 -13.828125 6.53125 -13.5 5.875 -12.84375 C 5.21875 -12.195312 4.890625 -11.273438 4.890625 -10.078125 L 4.890625 -9.328125 Z M 12.390625 -9.328125 "/></g></g></g><g fill="#282642" fill-opacity="1"><g transform="translate(182.280486, 91.006445)"><g><path d="M 1.8125 -4.609375 C 1.8125 -5.359375 1.941406 -6.035156 2.203125 -6.640625 C 2.460938 -7.242188 2.835938 -7.753906 3.328125 -8.171875 C 3.816406 -8.597656 4.40625 -8.925781 5.09375 -9.15625 C 5.789062 -9.394531 6.570312 -9.515625 7.4375 -9.515625 L 12.15625 -9.515625 L 12.15625 -10.796875 C 12.15625 -11.785156 11.832031 -12.550781 11.1875 -13.09375 C 10.550781 -13.644531 9.625 -13.921875 8.40625 -13.921875 C 7.53125 -13.921875 6.78125 -13.753906 6.15625 -13.421875 C 5.53125 -13.097656 5.109375 -12.648438 4.890625 -12.078125 L 2.3125 -12.078125 C 2.570312 -13.316406 3.253906 -14.300781 4.359375 -15.03125 C 5.460938 -15.769531 6.832031 -16.140625 8.46875 -16.140625 C 10.425781 -16.140625 11.960938 -15.679688 13.078125 -14.765625 C 14.191406 -13.847656 14.75 -12.578125 14.75 -10.953125 L 14.75 0 L 12.390625 0 L 12.390625 -3.03125 L 12.15625 -3.03125 C 11.90625 -2.007812 11.316406 -1.203125 10.390625 -0.609375 C 9.472656 -0.015625 8.351562 0.28125 7.03125 0.28125 C 5.4375 0.28125 4.164062 -0.15625 3.21875 -1.03125 C 2.28125 -1.914062 1.8125 -3.109375 1.8125 -4.609375 Z M 7.609375 -1.84375 C 8.265625 -1.84375 8.867188 -1.925781 9.421875 -2.09375 C 9.972656 -2.269531 10.453125 -2.515625 10.859375 -2.828125 C 11.265625 -3.148438 11.582031 -3.519531 11.8125 -3.9375 C 12.039062 -4.363281 12.15625 -4.828125 12.15625 -5.328125 L 12.15625 -7.484375 L 7.484375 -7.484375 C 6.523438 -7.484375 5.769531 -7.234375 5.21875 -6.734375 C 4.675781 -6.242188 4.40625 -5.554688 4.40625 -4.671875 C 4.40625 -3.785156 4.679688 -3.09375 5.234375 -2.59375 C 5.796875 -2.09375 6.585938 -1.84375 7.609375 -1.84375 Z M 7.609375 -1.84375 "/></g></g></g><g fill="#282642" fill-opacity="1"><g transform="translate(198.122004, 91.006445)"><g><path d="M 3.234375 -15.84375 L 5.671875 -15.84375 L 5.671875 -13.109375 L 5.90625 -13.109375 C 6.15625 -14.046875 6.671875 -14.785156 7.453125 -15.328125 C 8.242188 -15.867188 9.21875 -16.140625 10.375 -16.140625 C 12.039062 -16.140625 13.347656 -15.613281 14.296875 -14.5625 C 15.253906 -13.519531 15.734375 -12.082031 15.734375 -10.25 L 15.734375 -9.359375 L 13.140625 -9.359375 L 13.140625 -9.9375 C 13.140625 -11.1875 12.828125 -12.148438 12.203125 -12.828125 C 11.578125 -13.515625 10.6875 -13.859375 9.53125 -13.859375 C 8.40625 -13.859375 7.503906 -13.503906 6.828125 -12.796875 C 6.148438 -12.097656 5.8125 -11.144531 5.8125 -9.9375 L 5.8125 0 L 3.234375 0 Z M 3.234375 -15.84375 "/></g></g></g><g fill="#282642" fill-opacity="1"><g transform="translate(213.963522, 91.006445)"><g><path d="M 2.53125 0 L 2.53125 -15.84375 L 4.984375 -15.84375 L 4.984375 -13.109375 L 5.21875 -13.109375 C 5.46875 -14.066406 5.96875 -14.8125 6.71875 -15.34375 C 7.476562 -15.875 8.425781 -16.140625 9.5625 -16.140625 C 10.351562 -16.140625 11.066406 -16.003906 11.703125 -15.734375 C 12.347656 -15.460938 12.894531 -15.082031 13.34375 -14.59375 C 13.800781 -14.101562 14.15625 -13.515625 14.40625 -12.828125 C 14.65625 -12.148438 14.78125 -11.390625 14.78125 -10.546875 L 14.78125 0 L 12.1875 0 L 12.1875 -10.109375 C 12.1875 -11.316406 11.878906 -12.253906 11.265625 -12.921875 C 10.648438 -13.597656 9.796875 -13.9375 8.703125 -13.9375 C 7.609375 -13.9375 6.738281 -13.578125 6.09375 -12.859375 C 5.445312 -12.140625 5.125 -11.164062 5.125 -9.9375 L 5.125 0 Z M 2.53125 0 "/></g></g></g><g fill="#282642" fill-opacity="1"><g transform="translate(229.805041, 91.006445)"><g><path d="M 2.734375 0 L 2.734375 -2.359375 L 8.5 -2.359375 L 8.5 -13.484375 L 3.453125 -13.484375 L 3.453125 -15.84375 L 11.09375 -15.84375 L 11.09375 -2.359375 L 15.84375 -2.359375 L 15.84375 0 Z M 9.078125 -22.046875 L 9.65625 -22.046875 C 10.207031 -22.046875 10.65625 -21.878906 11 -21.546875 C 11.351562 -21.222656 11.53125 -20.800781 11.53125 -20.28125 C 11.53125 -19.757812 11.351562 -19.34375 11 -19.03125 C 10.65625 -18.726562 10.207031 -18.578125 9.65625 -18.578125 L 9.078125 -18.578125 C 8.515625 -18.578125 8.0625 -18.726562 7.71875 -19.03125 C 7.375 -19.332031 7.203125 -19.75 7.203125 -20.28125 C 7.203125 -20.800781 7.375 -21.222656 7.71875 -21.546875 C 8.0625 -21.878906 8.515625 -22.046875 9.078125 -22.046875 Z M 9.078125 -22.046875 "/></g></g></g><g fill="#282642" fill-opacity="1"><g transform="translate(245.646559, 91.006445)"><g><path d="M 2.53125 0 L 2.53125 -15.84375 L 4.984375 -15.84375 L 4.984375 -13.109375 L 5.21875 -13.109375 C 5.46875 -14.066406 5.96875 -14.8125 6.71875 -15.34375 C 7.476562 -15.875 8.425781 -16.140625 9.5625 -16.140625 C 10.351562 -16.140625 11.066406 -16.003906 11.703125 -15.734375 C 12.347656 -15.460938 12.894531 -15.082031 13.34375 -14.59375 C 13.800781 -14.101562 14.15625 -13.515625 14.40625 -12.828125 C 14.65625 -12.148438 14.78125 -11.390625 14.78125 -10.546875 L 14.78125 0 L 12.1875 0 L 12.1875 -10.109375 C 12.1875 -11.316406 11.878906 -12.253906 11.265625 -12.921875 C 10.648438 -13.597656 9.796875 -13.9375 8.703125 -13.9375 C 7.609375 -13.9375 6.738281 -13.578125 6.09375 -12.859375 C 5.445312 -12.140625 5.125 -11.164062 5.125 -9.9375 L 5.125 0 Z M 2.53125 0 "/></g></g></g><g fill="#282642" fill-opacity="1"><g transform="translate(261.488077, 91.006445)"><g><path d="M 2.109375 -10.078125 C 2.109375 -11.003906 2.234375 -11.84375 2.484375 -12.59375 C 2.734375 -13.34375 3.09375 -13.972656 3.5625 -14.484375 C 4.03125 -15.003906 4.597656 -15.410156 5.265625 -15.703125 C 5.941406 -15.992188 6.691406 -16.140625 7.515625 -16.140625 C 8.671875 -16.140625 9.648438 -15.863281 10.453125 -15.3125 C 11.265625 -14.769531 11.8125 -13.988281 12.09375 -12.96875 L 12.296875 -12.96875 L 12.296875 -15.84375 L 14.75 -15.84375 L 14.75 -1.15625 C 14.75 0.707031 14.203125 2.15625 13.109375 3.1875 C 12.015625 4.226562 10.476562 4.75 8.5 4.75 L 4.609375 4.75 L 4.609375 2.390625 L 8.5 2.390625 C 9.65625 2.390625 10.550781 2.082031 11.1875 1.46875 C 11.832031 0.851562 12.15625 -0.0195312 12.15625 -1.15625 L 12.15625 -1.734375 L 12.28125 -4.609375 L 12.09375 -4.609375 C 11.8125 -3.585938 11.265625 -2.800781 10.453125 -2.25 C 9.648438 -1.707031 8.671875 -1.4375 7.515625 -1.4375 C 6.691406 -1.4375 5.945312 -1.582031 5.28125 -1.875 C 4.625 -2.164062 4.054688 -2.566406 3.578125 -3.078125 C 3.109375 -3.597656 2.742188 -4.234375 2.484375 -4.984375 C 2.234375 -5.734375 2.109375 -6.566406 2.109375 -7.484375 Z M 4.75 -7.484375 C 4.75 -6.296875 5.078125 -5.363281 5.734375 -4.6875 C 6.398438 -4.019531 7.3125 -3.6875 8.46875 -3.6875 C 9.625 -3.6875 10.523438 -4.019531 11.171875 -4.6875 C 11.828125 -5.363281 12.15625 -6.296875 12.15625 -7.484375 L 12.15625 -10.078125 C 12.15625 -11.273438 11.828125 -12.207031 11.171875 -12.875 C 10.523438 -13.550781 9.625 -13.890625 8.46875 -13.890625 C 7.3125 -13.890625 6.398438 -13.550781 5.734375 -12.875 C 5.078125 -12.207031 4.75 -11.273438 4.75 -10.078125 Z M 4.75 -7.484375 "/></g></g></g><g fill="#282642" fill-opacity="1"><g transform="translate(277.329596, 91.006445)"><g/></g></g><g fill="#282642" fill-opacity="1"><g transform="translate(293.171114, 91.006445)"><g><path d="M 2.53125 -21.03125 L 5.125 -21.03125 L 5.125 -15.84375 C 5.125 -15.570312 5.117188 -15.28125 5.109375 -14.96875 C 5.097656 -14.65625 5.085938 -14.363281 5.078125 -14.09375 C 5.035156 -13.757812 5.003906 -13.429688 4.984375 -13.109375 L 5.21875 -13.109375 C 5.46875 -14.066406 5.96875 -14.8125 6.71875 -15.34375 C 7.476562 -15.875 8.425781 -16.140625 9.5625 -16.140625 C 10.351562 -16.140625 11.066406 -16.003906 11.703125 -15.734375 C 12.347656 -15.460938 12.894531 -15.082031 13.34375 -14.59375 C 13.800781 -14.101562 14.15625 -13.515625 14.40625 -12.828125 C 14.65625 -12.148438 14.78125 -11.390625 14.78125 -10.546875 L 14.78125 0 L 12.1875 0 L 12.1875 -10.109375 C 12.1875 -11.316406 11.878906 -12.253906 11.265625 -12.921875 C 10.648438 -13.597656 9.796875 -13.9375 8.703125 -13.9375 C 7.609375 -13.9375 6.738281 -13.578125 6.09375 -12.859375 C 5.445312 -12.140625 5.125 -11.164062 5.125 -9.9375 L 5.125 0 L 2.53125 0 Z M 2.53125 -21.03125 "/></g></g></g><g fill="#282642" fill-opacity="1"><g transform="translate(309.012632, 91.006445)"><g><path d="M 2.59375 -15.84375 L 5.1875 -15.84375 L 5.1875 -5.59375 C 5.1875 -3.1875 6.328125 -1.984375 8.609375 -1.984375 C 10.929688 -1.984375 12.09375 -3.1875 12.09375 -5.59375 L 12.09375 -15.84375 L 14.6875 -15.84375 L 14.6875 -5.59375 C 14.6875 -3.707031 14.160156 -2.253906 13.109375 -1.234375 C 12.066406 -0.222656 10.566406 0.28125 8.609375 0.28125 C 6.691406 0.28125 5.207031 -0.226562 4.15625 -1.25 C 3.113281 -2.28125 2.59375 -3.726562 2.59375 -5.59375 Z M 2.59375 -15.84375 "/></g></g></g><g fill="#282642" fill-opacity="1"><g transform="translate(324.854151, 91.006445)"><g><path d="M 2.53125 -21.03125 L 5.125 -21.03125 L 5.125 -16.140625 C 5.125 -15.867188 5.117188 -15.554688 5.109375 -15.203125 C 5.097656 -14.847656 5.085938 -14.515625 5.078125 -14.203125 C 5.035156 -13.835938 5.003906 -13.472656 4.984375 -13.109375 L 5.21875 -13.109375 C 5.46875 -14.066406 5.972656 -14.8125 6.734375 -15.34375 C 7.503906 -15.875 8.476562 -16.140625 9.65625 -16.140625 C 10.457031 -16.140625 11.1875 -15.992188 11.84375 -15.703125 C 12.5 -15.410156 13.054688 -15 13.515625 -14.46875 C 13.972656 -13.945312 14.332031 -13.300781 14.59375 -12.53125 C 14.851562 -11.757812 14.984375 -10.894531 14.984375 -9.9375 L 14.984375 -5.90625 C 14.984375 -4.945312 14.851562 -4.082031 14.59375 -3.3125 C 14.332031 -2.539062 13.972656 -1.890625 13.515625 -1.359375 C 13.054688 -0.835938 12.5 -0.429688 11.84375 -0.140625 C 11.1875 0.140625 10.457031 0.28125 9.65625 0.28125 C 8.476562 0.28125 7.503906 0.0195312 6.734375 -0.5 C 5.972656 -1.03125 5.46875 -1.773438 5.21875 -2.734375 L 4.984375 -2.734375 L 4.984375 0 L 2.53125 0 Z M 5.125 -5.90625 C 5.125 -4.695312 5.445312 -3.734375 6.09375 -3.015625 C 6.738281 -2.304688 7.597656 -1.953125 8.671875 -1.953125 C 9.828125 -1.953125 10.734375 -2.304688 11.390625 -3.015625 C 12.054688 -3.734375 12.390625 -4.695312 12.390625 -5.90625 L 12.390625 -9.9375 C 12.390625 -11.1875 12.0625 -12.15625 11.40625 -12.84375 C 10.757812 -13.539062 9.847656 -13.890625 8.671875 -13.890625 C 7.597656 -13.890625 6.738281 -13.53125 6.09375 -12.8125 C 5.445312 -12.101562 5.125 -11.144531 5.125 -9.9375 Z M 5.125 -5.90625 "/></g></g></g></g></g></g></svg>